<?xml version="1.0" encoding="UTF-8" standalone="no"?><!DOCTYPE svg PUBLIC "-//W3C//DTD SVG 1.1//EN" "http://www.w3.org/Graphics/SVG/1.1/DTD/svg11.dtd"><svg width="100%" height="100%" viewBox="0 0 1073 543" version="1.1" xmlns="http://www.w3.org/2000/svg" xmlns:xlink="http://www.w3.org/1999/xlink" xml:space="preserve" xmlns:serif="http://www.serif.com/" style="fill-rule:evenodd;clip-rule:evenodd;stroke-linejoin:round;stroke-miterlimit:2;"><path d="M277.783,209.417l-8.654,0c-24.588,-74.225 -38.704,-104.738 -80.146,-104.738l-5.463,0l0,299.642l38.704,0l0,9.562l-166.213,0l0,-9.562l38.708,0l0,-299.642l-5.921,0c-41.438,0 -56.921,34.154 -80.146,104.738l-8.654,0l4.554,-114.3l268.675,0l4.554,114.3Z" style="fill:#fbbc42;fill-rule:nonzero;"/><path d="M1072.671,95.117l0,8.654l-25.046,0l0,301.458l25.046,0l0,8.654l-138.892,0l0,-8.654l25.046,0l0,-284.613l-1.821,0l-68.308,293.267l-56.921,0l-80.146,-294.633l-1.821,0l0,285.979l25.046,0l0,8.654l-61.933,0l0,-8.654l25.046,0l0,-301.458l-25.046,0l0,-8.654l122.954,0l60.562,234.521l54.646,-234.521l121.587,0Z" style="fill:#fbbc42;fill-rule:nonzero;"/><g><clipPath id="_clip1"><path d="M277.783,271.429c0,120.154 97.408,217.567 217.571,217.567c120.163,0 217.567,-97.412 217.567,-217.567c0,-120.162 -97.404,-217.575 -217.567,-217.575c-120.162,0 -217.571,97.413 -217.571,217.575Z" clip-rule="nonzero"/></clipPath><g clip-path="url(#_clip1)"><path d="M1027.737,168.287c-18.108,0 -32.788,-14.679 -32.788,-32.788l0,-4.571c0,-18.108 -14.679,-32.787 -32.788,-32.787c-18.108,0 -32.788,14.679 -32.788,32.787l0,4.571c0,18.108 -14.679,32.788 -32.787,32.788c-18.104,0 -32.783,-14.679 -32.783,-32.788l0,-4.571c0,-18.108 -14.679,-32.787 -32.788,-32.787c-18.108,0 -32.788,14.679 -32.788,32.787l0,4.571c0,18.108 -14.679,32.788 -32.788,32.788c-18.108,0 -32.787,-14.679 -32.787,-32.788l0,-4.571c0,-18.108 -14.679,-32.787 -32.788,-32.787c-18.108,0 -32.787,14.679 -32.787,32.787l0,4.571c0,18.108 -14.679,32.788 -32.788,32.788c-18.104,0 -32.783,-14.679 -32.783,-32.788l0,-4.571c0,-18.108 -14.679,-32.787 -32.787,-32.787c-18.108,0 -32.788,14.679 -32.788,32.787l0,4.571c0,18.108 -14.679,32.788 -32.787,32.788c-18.108,0 -32.787,-14.679 -32.787,-32.788l0,-4.571c0,-18.108 -14.679,-32.787 -32.788,-32.787c-18.108,0 -32.788,14.679 -32.788,32.787l0,4.571c0,18.108 -14.679,32.788 -32.788,32.788c-18.104,0 -32.783,-14.679 -32.783,-32.788l0,-4.571c0,-18.108 -14.683,-32.787 -32.788,-32.787c-18.108,0 -32.788,14.679 -32.788,32.787l0,4.571c0,18.108 -14.679,32.788 -32.787,32.788c-18.108,0 -32.788,-14.679 -32.788,-32.788l0,-4.571c0,-18.108 -14.679,-32.787 -32.788,-32.787c-18.108,0 -32.788,14.679 -32.788,32.787l0,4.571c0,18.108 -14.679,32.788 -32.788,32.788c-18.104,0 -32.787,-14.679 -32.787,-32.788l0,-4.571c0,-18.108 -14.679,-32.787 -32.783,-32.787c-18.108,0 -32.787,14.679 -32.787,32.787l0,32.783c0,-18.104 14.679,-32.783 32.787,-32.783c18.104,0 32.783,14.679 32.783,32.783l0,4.575c0,18.108 14.683,32.787 32.787,32.787c18.108,0 32.788,-14.679 32.788,-32.787l0,-4.575c0,-18.104 14.679,-32.783 32.788,-32.783c18.108,0 32.788,14.679 32.788,32.783l0,4.575c0,18.108 14.679,32.787 32.788,32.787c18.108,0 32.787,-14.679 32.787,-32.787l0,-4.575c0,-18.104 14.679,-32.783 32.788,-32.783c18.104,0 32.788,14.679 32.788,32.783l0,4.575c0,18.108 14.679,32.787 32.783,32.787c18.108,0 32.788,-14.679 32.788,-32.787l0,-4.575c0,-18.104 14.679,-32.783 32.788,-32.783c18.108,0 32.788,14.679 32.788,32.783l0,4.575c0,18.108 14.679,32.787 32.787,32.787c18.108,0 32.787,-14.679 32.787,-32.787l0,-4.575c0,-18.104 14.679,-32.783 32.788,-32.783c18.108,0 32.787,14.679 32.787,32.783l0,4.575c0,18.108 14.679,32.787 32.783,32.787c18.108,0 32.788,-14.679 32.788,-32.787l0,-4.575c0,-18.104 14.679,-32.783 32.787,-32.783c18.108,0 32.788,14.679 32.788,32.783l0,4.575c0,18.108 14.679,32.787 32.787,32.787c18.108,0 32.788,-14.679 32.788,-32.787l0,-4.575c0,-18.104 14.679,-32.783 32.788,-32.783c18.108,0 32.788,14.679 32.788,32.783l0,4.575c0,18.108 14.679,32.787 32.783,32.787c18.108,0 32.787,-14.679 32.787,-32.787l0,-4.575c0,-18.104 14.679,-32.783 32.788,-32.783c18.108,0 32.788,14.679 32.788,32.783l0,4.575c0,18.108 14.679,32.787 32.788,32.787c18.108,0 32.787,-14.679 32.787,-32.787l0,-32.788c0,18.108 -14.679,32.788 -32.787,32.788" style="fill:#fff;fill-rule:nonzero;"/><path d="M1027.737,100.537c-18.108,0 -32.788,-14.679 -32.788,-32.788l0,-4.571c0,-18.108 -14.679,-32.788 -32.788,-32.788c-18.108,0 -32.788,14.679 -32.788,32.788l0,4.571c0,18.108 -14.679,32.788 -32.787,32.788c-18.104,0 -32.783,-14.679 -32.783,-32.788l0,-4.571c0,-18.108 -14.679,-32.788 -32.788,-32.788c-18.108,0 -32.788,14.679 -32.788,32.788l0,4.571c0,18.108 -14.679,32.788 -32.788,32.788c-18.108,0 -32.787,-14.679 -32.787,-32.788l0,-4.571c0,-18.108 -14.679,-32.788 -32.788,-32.788c-18.108,0 -32.787,14.679 -32.787,32.788l0,4.571c0,18.108 -14.679,32.788 -32.788,32.788c-18.104,0 -32.783,-14.679 -32.783,-32.788l0,-4.571c0,-18.108 -14.679,-32.788 -32.787,-32.788c-18.108,0 -32.788,14.679 -32.788,32.788l0,4.571c0,18.108 -14.679,32.788 -32.787,32.788c-18.108,0 -32.787,-14.679 -32.787,-32.788l0,-4.571c0,-18.108 -14.679,-32.788 -32.788,-32.788c-18.108,0 -32.788,14.679 -32.788,32.788l0,4.571c0,18.108 -14.679,32.788 -32.788,32.788c-18.104,0 -32.783,-14.679 -32.783,-32.788l0,-4.571c0,-18.108 -14.683,-32.788 -32.788,-32.788c-18.108,0 -32.788,14.679 -32.788,32.788l0,4.571c0,18.108 -14.679,32.788 -32.787,32.788c-18.108,0 -32.788,-14.679 -32.788,-32.788l0,-4.571c0,-18.108 -14.679,-32.788 -32.788,-32.788c-18.108,0 -32.788,14.679 -32.788,32.788l0,4.571c0,18.108 -14.679,32.788 -32.788,32.788c-18.104,0 -32.787,-14.679 -32.787,-32.788l0,-4.571c0,-18.108 -14.679,-32.788 -32.783,-32.788c-18.108,0 -32.787,14.679 -32.787,32.788l0,32.783c0,-18.104 14.679,-32.783 32.787,-32.783c18.104,0 32.783,14.679 32.783,32.783l0,4.575c0,18.108 14.683,32.787 32.787,32.787c18.108,0 32.788,-14.679 32.788,-32.787l0,-4.575c0,-18.104 14.679,-32.783 32.788,-32.783c18.108,0 32.788,14.679 32.788,32.783l0,4.575c0,18.108 14.679,32.787 32.788,32.787c18.108,0 32.787,-14.679 32.787,-32.787l0,-4.575c0,-18.104 14.679,-32.783 32.788,-32.783c18.104,0 32.788,14.679 32.788,32.783l0,4.575c0,18.108 14.679,32.787 32.783,32.787c18.108,0 32.788,-14.679 32.788,-32.787l0,-4.575c0,-18.104 14.679,-32.783 32.788,-32.783c18.108,0 32.788,14.679 32.788,32.783l0,4.575c0,18.108 14.679,32.787 32.787,32.787c18.108,0 32.787,-14.679 32.787,-32.787l0,-4.575c0,-18.104 14.679,-32.783 32.788,-32.783c18.108,0 32.787,14.679 32.787,32.783l0,4.575c0,18.108 14.679,32.787 32.783,32.787c18.108,0 32.788,-14.679 32.788,-32.787l0,-4.575c0,-18.104 14.679,-32.783 32.787,-32.783c18.108,0 32.788,14.679 32.788,32.783l0,4.575c0,18.108 14.679,32.787 32.787,32.787c18.108,0 32.788,-14.679 32.788,-32.787l0,-4.575c0,-18.104 14.679,-32.783 32.788,-32.783c18.108,0 32.788,14.679 32.788,32.783l0,4.575c0,18.108 14.679,32.787 32.783,32.787c18.108,0 32.787,-14.679 32.787,-32.787l0,-4.575c0,-18.104 14.679,-32.783 32.788,-32.783c18.108,0 32.788,14.679 32.788,32.783l0,4.575c0,18.108 14.679,32.787 32.788,32.787c18.108,0 32.787,-14.679 32.787,-32.787l0,-32.788c0,18.108 -14.679,32.788 -32.787,32.788" style="fill:#fff;fill-rule:nonzero;"/><path d="M1027.737,470.871c-18.108,0 -32.788,-14.679 -32.788,-32.788l0,-4.571c0,-18.108 -14.679,-32.788 -32.788,-32.788c-18.108,0 -32.788,14.679 -32.788,32.788l0,4.571c0,18.108 -14.679,32.788 -32.787,32.788c-18.104,0 -32.783,-14.679 -32.783,-32.788l0,-4.571c0,-18.108 -14.679,-32.788 -32.788,-32.788c-18.108,0 -32.788,14.679 -32.788,32.788l0,4.571c0,18.108 -14.679,32.788 -32.788,32.788c-18.108,0 -32.787,-14.679 -32.787,-32.788l0,-4.571c0,-18.108 -14.679,-32.788 -32.788,-32.788c-18.108,0 -32.787,14.679 -32.787,32.788l0,4.571c0,18.108 -14.679,32.788 -32.788,32.788c-18.104,0 -32.783,-14.679 -32.783,-32.788l0,-4.571c0,-18.108 -14.679,-32.788 -32.787,-32.788c-18.108,0 -32.788,14.679 -32.788,32.788l0,4.571c0,18.108 -14.679,32.788 -32.787,32.788c-18.108,0 -32.787,-14.679 -32.787,-32.788l0,-4.571c0,-18.108 -14.679,-32.788 -32.788,-32.788c-18.108,0 -32.788,14.679 -32.788,32.788l0,4.571c0,18.108 -14.679,32.788 -32.788,32.788c-18.104,0 -32.783,-14.679 -32.783,-32.788l0,-4.571c0,-18.108 -14.683,-32.788 -32.788,-32.788c-18.108,0 -32.788,14.679 -32.788,32.788l0,4.571c0,18.108 -14.679,32.788 -32.787,32.788c-18.108,0 -32.788,-14.679 -32.788,-32.788l0,-4.571c0,-18.108 -14.679,-32.788 -32.788,-32.788c-18.108,0 -32.788,14.679 -32.788,32.788l0,4.571c0,18.108 -14.679,32.788 -32.788,32.788c-18.104,0 -32.787,-14.679 -32.787,-32.788l0,-4.571c0,-18.108 -14.679,-32.788 -32.783,-32.788c-18.108,0 -32.787,14.679 -32.787,32.788l0,32.783c0,-18.104 14.679,-32.783 32.787,-32.783c18.104,0 32.783,14.679 32.783,32.783l0,4.575c0,18.108 14.683,32.788 32.787,32.788c18.108,0 32.788,-14.679 32.788,-32.788l0,-4.575c0,-18.104 14.679,-32.783 32.788,-32.783c18.108,0 32.788,14.679 32.788,32.783l0,4.575c0,18.108 14.679,32.788 32.788,32.788c18.108,0 32.787,-14.679 32.787,-32.788l0,-4.575c0,-18.104 14.679,-32.783 32.788,-32.783c18.104,0 32.788,14.679 32.788,32.783l0,4.575c0,18.108 14.679,32.788 32.783,32.788c18.108,0 32.788,-14.679 32.788,-32.788l0,-4.575c0,-18.104 14.679,-32.783 32.788,-32.783c18.108,0 32.788,14.679 32.788,32.783l0,4.575c0,18.108 14.679,32.788 32.787,32.788c18.108,0 32.787,-14.679 32.787,-32.788l0,-4.575c0,-18.104 14.679,-32.783 32.788,-32.783c18.108,0 32.787,14.679 32.787,32.783l0,4.575c0,18.108 14.679,32.788 32.783,32.788c18.108,0 32.788,-14.679 32.788,-32.788l0,-4.575c0,-18.104 14.679,-32.783 32.787,-32.783c18.108,0 32.788,14.679 32.788,32.783l0,4.575c0,18.108 14.679,32.788 32.787,32.788c18.108,0 32.788,-14.679 32.788,-32.788l0,-4.575c0,-18.104 14.679,-32.783 32.788,-32.783c18.108,0 32.788,14.679 32.788,32.783l0,4.575c0,18.108 14.679,32.788 32.783,32.788c18.108,0 32.787,-14.679 32.787,-32.788l0,-4.575c0,-18.104 14.679,-32.783 32.788,-32.783c18.108,0 32.788,14.679 32.788,32.783l0,4.575c0,18.108 14.679,32.788 32.788,32.788c18.108,0 32.787,-14.679 32.787,-32.788l0,-32.788c0,18.108 -14.679,32.788 -32.787,32.788" style="fill:#fff;fill-rule:nonzero;"/><path d="M1027.737,244.712c-18.108,0 -32.788,-14.679 -32.788,-32.788l0,-4.571c0,-18.108 -14.679,-32.787 -32.788,-32.787c-18.108,0 -32.788,14.679 -32.788,32.787l0,4.571c0,18.108 -14.679,32.788 -32.787,32.788c-18.104,0 -32.783,-14.679 -32.783,-32.788l0,-4.571c0,-18.108 -14.679,-32.787 -32.788,-32.787c-18.108,0 -32.788,14.679 -32.788,32.787l0,4.571c0,18.108 -14.679,32.788 -32.788,32.788c-18.108,0 -32.787,-14.679 -32.787,-32.788l0,-4.571c0,-18.108 -14.679,-32.787 -32.788,-32.787c-18.108,0 -32.787,14.679 -32.787,32.787l0,4.571c0,18.108 -14.679,32.788 -32.788,32.788c-18.104,0 -32.783,-14.679 -32.783,-32.788l0,-4.571c0,-18.108 -14.679,-32.787 -32.787,-32.787c-18.108,0 -32.788,14.679 -32.788,32.787l0,4.571c0,18.108 -14.679,32.788 -32.787,32.788c-18.108,0 -32.787,-14.679 -32.787,-32.788l0,-4.571c0,-18.108 -14.679,-32.787 -32.788,-32.787c-18.108,0 -32.788,14.679 -32.788,32.787l0,4.571c0,18.108 -14.679,32.788 -32.788,32.788c-18.104,0 -32.783,-14.679 -32.783,-32.788l0,-4.571c0,-18.108 -14.683,-32.787 -32.788,-32.787c-18.108,0 -32.788,14.679 -32.788,32.787l0,4.571c0,18.108 -14.679,32.788 -32.787,32.788c-18.108,0 -32.788,-14.679 -32.788,-32.788l0,-4.571c0,-18.108 -14.679,-32.787 -32.788,-32.787c-18.108,0 -32.788,14.679 -32.788,32.787l0,4.571c0,18.108 -14.679,32.788 -32.788,32.788c-18.104,0 -32.787,-14.679 -32.787,-32.788l0,-4.571c0,-18.108 -14.679,-32.787 -32.783,-32.787c-18.108,0 -32.787,14.679 -32.787,32.787l0,32.783c0,-18.104 14.679,-32.783 32.787,-32.783c18.104,0 32.783,14.679 32.783,32.783l0,4.575c0,18.108 14.683,32.788 32.787,32.788c18.108,0 32.788,-14.679 32.788,-32.788l0,-4.575c0,-18.104 14.679,-32.783 32.788,-32.783c18.108,0 32.788,14.679 32.788,32.783l0,4.575c0,18.108 14.679,32.788 32.788,32.788c18.108,0 32.787,-14.679 32.787,-32.788l0,-4.575c0,-18.104 14.679,-32.783 32.788,-32.783c18.104,0 32.788,14.679 32.788,32.783l0,4.575c0,18.108 14.679,32.788 32.783,32.788c18.108,0 32.788,-14.679 32.788,-32.788l0,-4.575c0,-18.104 14.679,-32.783 32.788,-32.783c18.108,0 32.788,14.679 32.788,32.783l0,4.575c0,18.108 14.679,32.788 32.787,32.788c18.108,0 32.787,-14.679 32.787,-32.788l0,-4.575c0,-18.104 14.679,-32.783 32.788,-32.783c18.108,0 32.787,14.679 32.787,32.783l0,4.575c0,18.108 14.679,32.788 32.783,32.788c18.108,0 32.788,-14.679 32.788,-32.788l0,-4.575c0,-18.104 14.679,-32.783 32.787,-32.783c18.108,0 32.788,14.679 32.788,32.783l0,4.575c0,18.108 14.679,32.788 32.787,32.788c18.108,0 32.788,-14.679 32.788,-32.788l0,-4.575c0,-18.104 14.679,-32.783 32.788,-32.783c18.108,0 32.788,14.679 32.788,32.783l0,4.575c0,18.108 14.679,32.788 32.783,32.788c18.108,0 32.787,-14.679 32.787,-32.788l0,-4.575c0,-18.104 14.679,-32.783 32.788,-32.783c18.108,0 32.788,14.679 32.788,32.783l0,4.575c0,18.108 14.679,32.788 32.788,32.788c18.108,0 32.787,-14.679 32.787,-32.788l0,-32.788c0,18.108 -14.679,32.788 -32.787,32.788" style="fill:#fff;fill-rule:nonzero;"/><path d="M1027.737,321.137c-18.108,0 -32.788,-14.679 -32.788,-32.788l0,-4.571c0,-18.108 -14.679,-32.787 -32.788,-32.787c-18.108,0 -32.788,14.679 -32.788,32.787l0,4.571c0,18.108 -14.679,32.788 -32.787,32.788c-18.104,0 -32.783,-14.679 -32.783,-32.788l0,-4.571c0,-18.108 -14.679,-32.787 -32.788,-32.787c-18.108,0 -32.788,14.679 -32.788,32.787l0,4.571c0,18.108 -14.679,32.788 -32.788,32.788c-18.108,0 -32.787,-14.679 -32.787,-32.788l0,-4.571c0,-18.108 -14.679,-32.787 -32.788,-32.787c-18.108,0 -32.787,14.679 -32.787,32.787l0,4.571c0,18.108 -14.679,32.788 -32.788,32.788c-18.104,0 -32.783,-14.679 -32.783,-32.788l0,-4.571c0,-18.108 -14.679,-32.787 -32.787,-32.787c-18.108,0 -32.788,14.679 -32.788,32.787l0,4.571c0,18.108 -14.679,32.788 -32.787,32.788c-18.108,0 -32.787,-14.679 -32.787,-32.788l0,-4.571c0,-18.108 -14.679,-32.787 -32.788,-32.787c-18.108,0 -32.788,14.679 -32.788,32.787l0,4.571c0,18.108 -14.679,32.788 -32.788,32.788c-18.104,0 -32.783,-14.679 -32.783,-32.788l0,-4.571c0,-18.108 -14.683,-32.787 -32.788,-32.787c-18.108,0 -32.788,14.679 -32.788,32.787l0,4.571c0,18.108 -14.679,32.788 -32.787,32.788c-18.108,0 -32.788,-14.679 -32.788,-32.788l0,-4.571c0,-18.108 -14.679,-32.787 -32.788,-32.787c-18.108,0 -32.788,14.679 -32.788,32.787l0,4.571c0,18.108 -14.679,32.788 -32.788,32.788c-18.104,0 -32.787,-14.679 -32.787,-32.788l0,-4.571c0,-18.108 -14.679,-32.787 -32.783,-32.787c-18.108,0 -32.787,14.679 -32.787,32.787l0,32.783c0,-18.104 14.679,-32.783 32.787,-32.783c18.104,0 32.783,14.679 32.783,32.783l0,4.575c0,18.108 14.683,32.788 32.787,32.788c18.108,0 32.788,-14.679 32.788,-32.788l0,-4.575c0,-18.104 14.679,-32.783 32.788,-32.783c18.108,0 32.788,14.679 32.788,32.783l0,4.575c0,18.108 14.679,32.788 32.788,32.788c18.108,0 32.787,-14.679 32.787,-32.788l0,-4.575c0,-18.104 14.679,-32.783 32.788,-32.783c18.104,0 32.788,14.679 32.788,32.783l0,4.575c0,18.108 14.679,32.788 32.783,32.788c18.108,0 32.788,-14.679 32.788,-32.788l0,-4.575c0,-18.104 14.679,-32.783 32.788,-32.783c18.108,0 32.788,14.679 32.788,32.783l0,4.575c0,18.108 14.679,32.788 32.787,32.788c18.108,0 32.787,-14.679 32.787,-32.788l0,-4.575c0,-18.104 14.679,-32.783 32.788,-32.783c18.108,0 32.787,14.679 32.787,32.783l0,4.575c0,18.108 14.679,32.788 32.783,32.788c18.108,0 32.788,-14.679 32.788,-32.788l0,-4.575c0,-18.104 14.679,-32.783 32.787,-32.783c18.108,0 32.788,14.679 32.788,32.783l0,4.575c0,18.108 14.679,32.788 32.787,32.788c18.108,0 32.788,-14.679 32.788,-32.788l0,-4.575c0,-18.104 14.679,-32.783 32.788,-32.783c18.108,0 32.788,14.679 32.788,32.783l0,4.575c0,18.108 14.679,32.788 32.783,32.788c18.108,0 32.787,-14.679 32.787,-32.788l0,-4.575c0,-18.104 14.679,-32.783 32.788,-32.783c18.108,0 32.788,14.679 32.788,32.783l0,4.575c0,18.108 14.679,32.788 32.788,32.788c18.108,0 32.787,-14.679 32.787,-32.788l0,-32.788c0,18.108 -14.679,32.788 -32.787,32.788" style="fill:#fff;fill-rule:nonzero;"/><path d="M1027.737,397.558c-18.108,0 -32.788,-14.679 -32.788,-32.788l0,-4.571c0,-18.108 -14.679,-32.788 -32.788,-32.788c-18.108,0 -32.788,14.679 -32.788,32.788l0,4.571c0,18.108 -14.679,32.788 -32.787,32.788c-18.104,0 -32.783,-14.679 -32.783,-32.788l0,-4.571c0,-18.108 -14.679,-32.788 -32.788,-32.788c-18.108,0 -32.788,14.679 -32.788,32.788l0,4.571c0,18.108 -14.679,32.788 -32.788,32.788c-18.108,0 -32.787,-14.679 -32.787,-32.788l0,-4.571c0,-18.108 -14.679,-32.788 -32.788,-32.788c-18.108,0 -32.787,14.679 -32.787,32.788l0,4.571c0,18.108 -14.679,32.788 -32.788,32.788c-18.104,0 -32.783,-14.679 -32.783,-32.788l0,-4.571c0,-18.108 -14.679,-32.788 -32.787,-32.788c-18.108,0 -32.788,14.679 -32.788,32.788l0,4.571c0,18.108 -14.679,32.788 -32.787,32.788c-18.108,0 -32.787,-14.679 -32.787,-32.788l0,-4.571c0,-18.108 -14.679,-32.788 -32.788,-32.788c-18.108,0 -32.788,14.679 -32.788,32.788l0,4.571c0,18.108 -14.679,32.788 -32.788,32.788c-18.104,0 -32.783,-14.679 -32.783,-32.788l0,-4.571c0,-18.108 -14.683,-32.788 -32.788,-32.788c-18.108,0 -32.788,14.679 -32.788,32.788l0,4.571c0,18.108 -14.679,32.788 -32.787,32.788c-18.108,0 -32.788,-14.679 -32.788,-32.788l0,-4.571c0,-18.108 -14.679,-32.788 -32.788,-32.788c-18.108,0 -32.788,14.679 -32.788,32.788l0,4.571c0,18.108 -14.679,32.788 -32.788,32.788c-18.104,0 -32.787,-14.679 -32.787,-32.788l0,-4.571c0,-18.108 -14.679,-32.788 -32.783,-32.788c-18.108,0 -32.787,14.679 -32.787,32.788l0,32.783c0,-18.104 14.679,-32.783 32.787,-32.783c18.104,0 32.783,14.679 32.783,32.783l0,4.575c0,18.108 14.683,32.788 32.787,32.788c18.108,0 32.788,-14.679 32.788,-32.788l0,-4.575c0,-18.104 14.679,-32.783 32.788,-32.783c18.108,0 32.788,14.679 32.788,32.783l0,4.575c0,18.108 14.679,32.788 32.788,32.788c18.108,0 32.787,-14.679 32.787,-32.788l0,-4.575c0,-18.104 14.679,-32.783 32.788,-32.783c18.104,0 32.788,14.679 32.788,32.783l0,4.575c0,18.108 14.679,32.788 32.783,32.788c18.108,0 32.788,-14.679 32.788,-32.788l0,-4.575c0,-18.104 14.679,-32.783 32.788,-32.783c18.108,0 32.788,14.679 32.788,32.783l0,4.575c0,18.108 14.679,32.788 32.787,32.788c18.108,0 32.787,-14.679 32.787,-32.788l0,-4.575c0,-18.104 14.679,-32.783 32.788,-32.783c18.108,0 32.787,14.679 32.787,32.783l0,4.575c0,18.108 14.679,32.788 32.783,32.788c18.108,0 32.788,-14.679 32.788,-32.788l0,-4.575c0,-18.104 14.679,-32.783 32.787,-32.783c18.108,0 32.788,14.679 32.788,32.783l0,4.575c0,18.108 14.679,32.788 32.787,32.788c18.108,0 32.788,-14.679 32.788,-32.788l0,-4.575c0,-18.104 14.679,-32.783 32.788,-32.783c18.108,0 32.788,14.679 32.788,32.783l0,4.575c0,18.108 14.679,32.788 32.783,32.788c18.108,0 32.787,-14.679 32.787,-32.788l0,-4.575c0,-18.104 14.679,-32.783 32.788,-32.783c18.108,0 32.788,14.679 32.788,32.783l0,4.575c0,18.108 14.679,32.788 32.788,32.788c18.108,0 32.787,-14.679 32.787,-32.788l0,-32.788c0,18.108 -14.679,32.788 -32.787,32.788" style="fill:#fff;fill-rule:nonzero;"/></g></g><path d="M740.971,443.108c15.429,0 24.371,3.508 24.371,14.375c0,8.417 -5.263,12.887 -14.467,14.379l0,0.175c11.046,1.4 17.533,6.046 17.533,15.25c0,13.588 -11.396,17.183 -27.875,17.183l-25.771,0l0,-1.667l5.696,0l0,-58.029l-5.696,0l0,-1.667l26.208,0Zm-3.417,28.663l2.279,0c6.308,0 8.15,-4.029 8.15,-11.217l0,-4.121c0,-8.417 -1.492,-11.658 -7.625,-11.658l-2.804,0l0,26.996Zm0,31.033l4.117,0c6.75,0 8.679,-5.083 8.679,-13.15l0,-4.646c0,-7.188 -2.279,-11.571 -10.783,-11.571l-2.012,0l0,29.367Z" style="fill:#fbbc42;fill-rule:nonzero;"/><path d="M792.692,479.4l0,23.492l6.225,0l0,1.579l-27.35,0l0,-1.579l4.821,0l0,-38.571l-4.821,0l0,-1.575l21.125,0l0,8.413c1.579,-6.221 6.487,-9.292 11.746,-9.292c5.171,0 9.292,2.721 9.292,9.379c0,5 -2.629,8.329 -7.363,8.329c-5.875,0 -8.679,-3.679 -6.837,-9.904l3.154,0c1.754,-3.596 0,-4.471 -1.842,-4.471c-4.204,0 -8.15,6.312 -8.15,14.2" style="fill:#fbbc42;fill-rule:nonzero;"/><path d="M837.925,461.867c14.725,0 21.737,6.925 21.737,21.125c0,14.375 -6.662,22.354 -22.262,22.354c-14.729,0 -22.179,-7.887 -22.179,-21.562c0,-14.379 8.592,-21.917 22.704,-21.917m4.908,17.883c0,-9.467 -0.262,-16.304 -5.171,-16.304c-5.346,0 -5.612,6.837 -5.612,16.742l0,6.838c0,10.167 0.179,16.742 5.525,16.742c4.996,0 5.258,-5.171 5.258,-16.567l0,-7.45Z" style="fill:#fbbc42;fill-rule:nonzero;"/><path d="M885.521,461.867c14.725,0 21.737,6.925 21.737,21.125c0,14.375 -6.662,22.354 -22.262,22.354c-14.729,0 -22.179,-7.887 -22.179,-21.562c0,-14.379 8.592,-21.917 22.704,-21.917m4.908,17.883c0,-9.467 -0.262,-16.304 -5.171,-16.304c-5.346,0 -5.612,6.837 -5.612,16.742l0,6.838c0,10.167 0.179,16.742 5.525,16.742c4.996,0 5.258,-5.171 5.258,-16.567l0,-7.45Z" style="fill:#fbbc42;fill-rule:nonzero;"/><path d="M938.379,502.892l4.033,0l-9.904,-20.337l-1.667,0.438l0,19.9l4.033,0l0,1.579l-25.158,0l0,-1.579l4.821,0l0,-62.587l-5.175,0l0,-1.579l21.479,0l0,42.517l1.4,-0.529l19.725,-16.392l-8.242,0l0,-1.575l17.271,0l0,1.575l-6.138,0l-10.429,8.854l15.163,29.717l3.158,0l0,1.579l-24.371,0l0,-1.579Z" style="fill:#fbbc42;fill-rule:nonzero;"/><path d="M985.192,438.725l0,64.167l4.908,0l0,1.579l-26.033,0l0,-1.579l4.821,0l0,-62.588l-5.171,0l0,-1.579l21.475,0Z" style="fill:#fbbc42;fill-rule:nonzero;"/><path d="M1012.892,462.746l0,40.146l4.908,0l0,1.579l-26.033,0l0,-1.579l4.821,0l0,-38.567l-5.171,0l0,-1.579l21.475,0Zm-7.888,-22.354c5.433,0 8.675,2.717 8.675,8.067c0,4.646 -2.542,8.238 -8.854,8.238c-7.1,0 -8.762,-4.471 -8.762,-8.15c0,-4.296 2.367,-8.154 8.942,-8.154" style="fill:#fbbc42;fill-rule:nonzero;"/><path d="M1040.85,462.746l0,8.067c1.492,-4.383 4.383,-8.942 13.062,-8.942c8.15,0 13.588,4.029 13.588,14.638l0,26.383l4.908,0l0,1.579l-24.808,0l0,-1.579l3.596,0l0,-28.488c0,-7.45 -1.054,-8.329 -3.246,-8.329c-3.679,0 -7.1,5.525 -7.1,12.625l0,24.192l3.771,0l0,1.579l-24.896,0l0,-1.579l4.821,0l0,-38.567l-4.821,0l0,-1.579l21.125,0Z" style="fill:#fbbc42;fill-rule:nonzero;"/><path d="M302.258,91.65c-1.121,0 -2.238,-0.413 -3.113,-1.246c-1.8,-1.721 -1.867,-4.575 -0.15,-6.375c25.083,-26.275 54.608,-46.942 87.75,-61.429c34.312,-14.996 70.854,-22.6 108.604,-22.6c67.896,0 132.879,25.192 182.975,70.942c1.842,1.679 1.971,4.529 0.292,6.371c-1.679,1.838 -4.533,1.967 -6.371,0.287c-48.433,-44.225 -111.254,-68.583 -176.896,-68.583c-36.5,0 -71.825,7.35 -104.992,21.846c-32.042,14.004 -60.583,33.987 -84.838,59.392c-0.887,0.929 -2.075,1.396 -3.262,1.396" style="fill:#fbbc42;fill-rule:nonzero;"/><path d="M495.354,542.854c-36.642,0 -72.188,-7.179 -105.654,-21.333c-32.321,-13.671 -61.35,-33.242 -86.275,-58.167c-24.925,-24.925 -44.496,-53.954 -58.167,-86.275c-14.154,-33.467 -21.333,-69.012 -21.333,-105.654c0,-2.488 2.021,-4.508 4.508,-4.508c2.492,0 4.513,2.021 4.513,4.508c0,35.429 6.938,69.796 20.617,102.142c13.217,31.246 32.138,59.312 56.242,83.413c24.1,24.1 52.163,43.021 83.408,56.237c32.35,13.683 66.712,20.621 102.142,20.621c38.404,0 75.408,-8.108 109.987,-24.096c33.421,-15.446 62.742,-37.358 87.15,-65.117c1.642,-1.871 4.492,-2.054 6.362,-0.408c1.871,1.646 2.054,4.492 0.408,6.363c-25.242,28.712 -55.571,51.371 -90.133,67.35c-35.775,16.537 -74.054,24.925 -113.775,24.925" style="fill:#fbbc42;fill-rule:nonzero;"/></svg>